<svg
  width="200"
  height="200"
  viewBox="0 0 200 200"
  xmlns="http://www.w3.org/2000/svg">
  <defs>
    <linearGradient id="bgGradient" x1="0%" y1="0%" x2="100%" y2="100%">
      <stop offset="0%" style="stop-color: #2196F3; stop-opacity: 1;"/>
      <stop offset="100%" style="stop-color: #9C27B0; stop-opacity: 1;"/>
    </linearGradient>
    <linearGradient id="lineGradient" x1="0%" y1="0%" x2="100%" y2="100%">
      <stop offset="0%" style="stop-color: #FFEB3B; stop-opacity: 1;"/>
      <stop offset="100%" style="stop-color: #FBC02D; stop-opacity: 1;"/>
    </linearGradient>
  </defs>
  <circle cx="100" cy="100" r="90" fill="url(#bgGradient)"/>
  <g stroke-width="10" stroke-linecap="round">
    <line x1="100" y1="10" x2="100" y2="20" stroke="url(#lineGradient)"/>
    <line x1="180" y1="100" x2="160" y2="100" stroke="url(#lineGradient)"/>
    <line x1="100" y1="10" x2="100" y2="20" stroke="url(#lineGradient)"/>
    <line x1="130" y1="30" x2="120" y2="50" stroke="url(#lineGradient)"/>
    <line x1="160" y1="60" x2="140" y2="70" stroke="url(#lineGradient)"/>
    <line x1="180" y1="100" x2="160" y2="100" stroke="url(#lineGradient)"/>
    <line x1="160" y1="140" x2="140" y2="130" stroke="url(#lineGradient)"/>
    <line x1="130" y1="170" x2="120" y2="150" stroke="url(#lineGradient)"/>
    <line x1="100" y1="180" x2="100" y2="160" stroke="url(#lineGradient)"/>
    <line x1="70" y1="170" x2="80" y2="150" stroke="url(#lineGradient)"/>
    <line x1="40" y1="140" x2="60" y2="130" stroke="url(#lineGradient)"/>
    <line x1="20" y1="100" x2="40" y2="100" stroke="url(#lineGradient)"/>
    <line x1="40" y1="60" x2="60" y2="70" stroke="url(#lineGradient)"/>
    <line x1="70" y1="30" x2="80" y2="50" stroke="url(#lineGradient)"/>
  </g>
</svg>
